# AST/ASF file generated using VICON BodyLanguage
# -----------------------------------------------
:version 1.10
:name VICON
:units
  mass 1.0
  length 0.45
  angle deg
:documentation
   .ast/.asf automatically generated from VICON data using
   VICON BodyBuilder and BodyLanguage model FoxedUp or BRILLIANT.MOD
:root
   order TX TY TZ RX RY RZ
   axis XYZ
   position 0 0 0  
   orientation 0 0 0 
:bonedata
  begin
     id 1 
     name lhipjoint
     direction 0.716248 -0.617586 0.324924 
     length 2.63557 
     axis 0 0 0  XYZ
  end
  begin
     id 2 
     name lfemur
     direction 0.34202 -0.939693 0  
     length 7.01235  
     axis 0 0 20  XYZ
    dof rx ry rz
    limits (-160.0 20.0)
           (-70.0 70.0)
           (-60.0 70.0)
  end
  begin
     id 3 
     name ltibia
     direction 0.34202 -0.939693 0   
     length 8.14348   
     axis 0 0 20   XYZ
    dof rx
    limits (-10.0 170.0)
  end
  begin
     id 4 
     name lfoot
     direction 0.0982064 -0.26982 0.95789   
     length 1.99077   
     axis -90 7.62852e-016 20   XYZ
    dof rx rz
    limits (-45.0 90.0)
           (-70.0 20.0)
  end
  begin
     id 5 
     name ltoes
     direction 1.53511e-011 -4.21891e-011 1   
     length 0.99735   
     axis -90 7.62852e-016 20   XYZ
    dof rx
    limits (-90.0 20.0)
  end
  begin
     id 6 
     name rhipjoint
     direction -0.687828 -0.642391 0.337975   
     length 2.5338  
     axis 0 0 0  XYZ 
  end
  begin
     id 7 
     name rfemur
     direction -0.34202 -0.939693 0   
     length 6.90199   
     axis 0 0 -20   XYZ
    dof rx ry rz
    limits (-160.0 20.0)
           (-70.0 70.0)
           (-70.0 60.0)
  end
  begin
     id 8 
     name rtibia
     direction -0.34202 -0.939693 0   
     length 8.07725   
     axis 0 0 -20   XYZ
    dof rx
    limits (-10.0 170.0)
 end
 begin
     id 9 
     name rfoot
     direction -0.0912384 -0.250675 0.963762   
     length 2.11621  
     axis -90 -7.62852e-016 -20   XYZ
    dof rx rz
    limits (-45.0 90.0)
           (-20.0 70.0)
  end
  begin
     id 10 
     name rtoes
     direction -1.5359e-011 -4.21894e-011 1   
     length 1.06031   
     axis -90 -7.62852e-016 -20   XYZ
    dof rx
    limits (-90.0 20.0)
  end
  begin
     id 11 
     name lowerback
     direction -0.0403572 0.987953 -0.149396   
     length 2.05637   
     axis 0 0 0   XYZ
    dof rx ry rz
    limits (-20.0 45.0)
           (-30.0 30.0)
           (-30.0 30.0)
  end
  begin
     id 12 
     name upperback
     direction -0.00512151 0.997598 0.0690792   
     length 2.01086   
     axis 0 0 0   XYZ
    dof rx ry rz
    limits (-20.0 45.0)
           (-30.0 30.0)
           (-30.0 30.0)
  end
  begin
     id 13 
     name thorax
     direction 0.0136133 0.989392 0.14463   
     length 2.09035   
     axis 0 0 0   XYZ
    dof rx ry rz
    limits (-20.0 45.0)
           (-30.0 30.0)
           (-30.0 30.0)
  end
  begin
     id 14 
     name lowerneck
     direction 0.0250714 0.992811 0.11704   
     length 1.70806   
     axis 0 0 0   XYZ
    dof rx ry rz
    limits (-20.0 45.0)
           (-30.0 30.0)
           (-30.0 30.0)
  end
  begin
     id 15 
     name upperneck
     direction -0.0519205 0.998394 -0.0226787   
     length 1.6689   
     axis 0 0 0   XYZ
    dof rx ry rz
    limits (-20.0 45.0)
           (-30.0 30.0)
           (-30.0 30.0)
  end
  begin
     id 16
     name head
     direction -0.0201693 0.999547 -0.0223192  
     length 1.83412  
     axis 0 0 0   XYZ
    dof rx ry rz
    limits (-20.0 45.0)
           (-30.0 30.0)
           (-30.0 30.0)
  end
  begin
     id 17 
     name lclavicle
     direction 0.89585 0.444077 -0.0157448  
     length 3.39587  
     axis 0 0 0   XYZ
    dof ry rz
    limits (-20.0 10.0)
           (0.0 20.0)
  end
  begin
     id 18 
     name lhumerus
     direction 1 -4.48956e-011 1.99132e-028   
     length 5.79199   
     axis 180 -30 -90   XYZ
    dof rx ry rz
    limits (-60.0 90.0)
           (-90.0 90.0)
           (-90.0 90.0)
  end
  begin
     id 19
     name lradius
     direction 1 -4.48974e-011 8.72912e-028   
     length 3.49908   
     axis 180 -30 -90   XYZ
    dof rx
    limits (-10.0 170.0)
  end
  begin
     id 20
     name lwrist
     direction 1 -4.48994e-011 4.76442e-027   
     length 1.74954   
     axis -3.27502e-015 90 90   XYZ
    dof ry
    limits (-180.0 0.0)
 end
  begin
     id 21 
     name lhand
     direction 1 -4.48945e-011 9.531e-027   
     length 0.593861   
     axis -6.08098e-015 90 90   XYZ
    dof rx rz
    limits (-90.0 90.0)
           (-45.0 45.0)
  end
  begin
     id 22 
     name lfingers
     direction 1 -4.48945e-011 1.9062e-026   
     length 0.478786   
     axis -1.21619e-014 90 90   XYZ
    dof rx
    limits (0.0 90.0)
  end
  begin
     id 23
     name lthumb
     direction 0.707107 -6.34904e-011 0.707107   
     length 0.687444   
     axis -90 45 -9.86923e-015   XYZ
    dof rx rz
    limits (-45.0 45.0)
           (-45.0 45.0)
  end
  begin
     id 24 
     name rclavicle
     direction -0.940466 0.338394 0.0318182   
     length 3.51226  
     axis 0 0 0   XYZ 
    dof ry rz
    limits (-10.0 20.0)
           (-20.0 0.0)
  end
  begin
     id 25 
     name rhumerus
     direction -1 -4.48976e-011 2.0905e-027  
     length 5.73799   
     axis 180 30 90   XYZ
    dof rx ry rz
    limits (-90.0 60.0)
           (-90.0 90.0)
           (-90.0 90.0)
  end
  begin
     id 26 
     name rradius
     direction -1 -4.48968e-011 -9.39692e-029   
     length 3.57916   
     axis 180 30 90   XYZ
    dof rx
    limits (-10.0 170.0)
  end
  begin
     id 27 
     name rwrist
     direction -1 -4.48959e-011 4.7652e-027   
     length 1.78958   
     axis -3.27502e-015 -90 -90   XYZ
    dof ry
    limits (-180.0 0.0)
  end
  begin
     id 28
     name rhand
     direction -1 -4.49042e-011 9.5267e-027   
     length 0.615577   
     axis -6.08098e-015 -90 -90   XYZ
    dof rx rz
    limits (-90.0 90.0)
           (-45.0 45.0)
  end
  begin
     id 29
     name rfingers
     direction -1 -4.48935e-011 1.90629e-026   
     length 0.496294   
     axis -1.21619e-014 -90 -90   XYZ
    dof rx
    limits (0.0 90.0)
  end
  begin
     id 30
     name rthumb
     direction -0.707107 -6.34977e-011 0.707107   
     length 0.712582   
     axis -90 -45 9.86923e-015   XYZ
    dof rx rz
    limits (-45.0 45.0)
           (-45.0 45.0)
  end
:hierarchy
  begin
    root lhipjoint rhipjoint lowerback
    lhipjoint lfemur
    lfemur ltibia
    ltibia lfoot
    lfoot ltoes
    rhipjoint rfemur
    rfemur rtibia
    rtibia rfoot
    rfoot rtoes
    lowerback upperback
    upperback thorax
    thorax lowerneck lclavicle rclavicle
    lowerneck upperneck
    upperneck head
    lclavicle lhumerus
    lhumerus lradius
    lradius lwrist
    lwrist lhand lthumb
    lhand lfingers
    rclavicle rhumerus
    rhumerus rradius
    rradius rwrist
    rwrist rhand rthumb
    rhand rfingers
  end

#!OML:ASF H:\Terrain\Patient Classification 1\PaulMetrics\March17Take5\PaulMetrics.ASF
:FULLY-SPECIFIED
:DEGREES
2870
root 9.27983 17.3237 9.93451 -167.235 -10.7375 -185.692
lowerback 3.47256 0.00201963 -8.49362
upperback -2.44641 -0.651488 -1.56244
thorax -4.44639 -0.140928 3.18282
lowerneck -7.19425 2.37133 2.80919
upperneck 6.16063 2.89266 -0.366784
head 3.30671 1.48212 -0.4649
rclavicle -3.50855e-014 -5.30755e-014
rhumerus -50.3765 11.4151 -87.5564
rradius 45.5095
rwrist -10.8636
rhand -18.3168 -36.2435
rfingers 7.12502
rthumb 7.96463 293.927
lclavicle -3.50855e-014 -5.30755e-014
lhumerus -40.8765 -15.3399 73.702
lradius 60.6417
lwrist 28.2116
lhand -19.8458 -27.2859
lfingers 7.12502
lthumb 6.48865 2.59469
rfemur -40.8838 -3.9167 18.6549
rtibia 67.1703
rfoot -12.3966 -6.70318
rtoes -3.02573
lfemur -19.8327 -5.88103 -27.5866
ltibia 35.994
lfoot -24.5051 6.89475
ltoes -10.5007
2871
root 9.23054 17.2899 9.81478 -167.244 -10.5691 -185.842
lowerback 3.79499 -0.0270498 -8.52851
upperback -2.43698 -0.738045 -1.68468
thorax -4.61199 -0.181238 3.08381
lowerneck -7.29633 2.40959 2.834
upperneck 6.0547 2.92992 -0.254105
head 3.28863 1.50505 -0.42987
rclavicle -1.42131e-014 -1.41137e-014
rhumerus -50.5472 11.2021 -87.5673
rradius 45.5569
rwrist -11.5811
rhand -19.9234 -35.7696
rfingers 7.12502
rthumb 6.41381 294.347
lclavicle -1.42131e-014 -1.41137e-014
lhumerus -40.2339 -16.0036 73.7511
lradius 61.0183
lwrist 28.509
lhand -19.8382 -27.1301
lfingers 7.12502
lthumb 6.49606 2.7503
rfemur -41.815 -4.0616 18.6207
rtibia 66.0296
rfoot -13.2011 -6.74757
rtoes -2.98168
lfemur -18.9505 -5.75037 -27.9135
ltibia 35.4817
lfoot -24.9684 6.49317
ltoes -8.4677
2872
root 9.18167 17.2925 9.67934 -167.311 -10.2371 -186.035
lowerback 3.8696 -0.0652013 -8.83735
upperback -2.29557 -0.808663 -1.70373
thorax -4.49656 -0.21618 3.24149
lowerneck -7.47495 2.49324 2.93842
upperneck 5.91327 3.04389 -0.451073
head 3.2826 1.55641 -0.505225
rclavicle 9.26834e-015 2.66371e-014
rhumerus -50.5651 11.3813 -87.5601
rradius 45.7248
rwrist -12.0223
rhand -19.8535 -36.6629
rfingers 7.12502
rthumb 6.48128 293.456
lclavicle 9.26834e-015 2.66371e-014
lhumerus -39.4137 -16.4569 73.8
lradius 61.2557
lwrist 28.796
lhand -19.8404 -27.3065
lfingers 7.12502
lthumb 6.49392 2.57394
rfemur -42.4613 -4.07004 18.494
rtibia 64.6428
rfoot -13.49 -6.95453
rtoes -4.15563
lfemur -17.9897 -5.40664 -28.3236
ltibia 34.9261
lfoot -25.4834 6.65143
ltoes -7.55417
2873
root 9.13788 17.3119 9.54195 -167.301 -9.97753 -185.89
lowerback 3.78664 -0.220543 -8.99806
upperback -2.2816 -0.992772 -1.45733
thorax -4.40611 -0.297625 3.60053
lowerneck -7.36355 2.68624 2.80126
upperneck 5.99278 3.33994 -0.689174
head 3.29652 1.69172 -0.544131
rclavicle 4.4975e-015 7.35503e-015
rhumerus -50.6502 11.9614 -87.4462
rradius 45.7346
rwrist -12.073
rhand -19.383 -36.731
rfingers 7.12502
rthumb 6.93543 293.403
lclavicle 4.4975e-015 7.35503e-015
lhumerus -39.0216 -16.5734 74.0829
lradius 61.5215
lwrist 28.863
lhand -20.2215 -27.5955
lfingers 7.12502
lthumb 6.12597 2.29591
rfemur -43.1155 -3.98312 18.748
rtibia 63.0521
rfoot -13.6524 -7.40024
rtoes -4.19078
lfemur -17.212 -5.0568 -28.2922
ltibia 34.3868
lfoot -25.976 6.60015
ltoes -7.25233
2874
root 9.09125 17.3079 9.41512 -167.127 -9.81889 -185.563
lowerback 3.78055 -0.399976 -8.83742
upperback -2.45075 -1.212 -1.2077
thorax -4.54858 -0.391666 3.78846
lowerneck -7.1648 2.89896 2.64584
upperneck 6.09123 3.64899 -0.732135
head 3.29538 1.83997 -0.516569
rclavicle 2.11706e-014 -1.70955e-014
rhumerus -50.8735 12.0442 -86.973
rradius 45.8402
rwrist -10.45
rhand -16.8798 -37.2456
rfingers 7.12502
rthumb 9.35136 292.982
lclavicle 2.11706e-014 -1.70955e-014
lhumerus -38.8388 -16.6894 74.4069
lradius 61.8503
lwrist 28.9303
lhand -20.5914 -27.5555
lfingers 7.12502
lthumb 5.76889 2.34601
rfemur -44.0015 -4.02626 19.2004
rtibia 61.4098
rfoot -13.8654 -7.82947
rtoes -3.23265
lfemur -16.6394 -5.01605 -28.049
ltibia 33.8653
lfoot -26.5845 6.31574
ltoes -6.80725
2875
root 9.04525 17.2962 9.28357 -167.022 -9.63261 -185.514
lowerback 3.797 -0.46925 -8.88106
upperback -2.49339 -1.30511 -1.11953
thorax -4.58825 -0.430899 3.9123
lowerneck -7.01732 3.0052 2.56371
upperneck 5.92782 3.79833 -0.657802
head 3.20918 1.91494 -0.473339
rclavicle 1.63997e-015 -1.68967e-014
rhumerus -51.0426 11.7808 -86.5027
rradius 46.2638
rwrist -8.94823
rhand -14.6917 -39.1012
rfingers 7.12502
rthumb 11.4621 291.232
lclavicle 1.63997e-015 -1.68967e-014
lhumerus -38.2572 -17.0186 74.6025
lradius 62.0952
lwrist 29.1215
lhand -20.6584 -27.7599
lfingers 7.12502
lthumb 5.70417 2.14331
rfemur -44.6749 -3.92115 19.2547
rtibia 59.7534
rfoot -14.2819 -8.05161
rtoes -2.66684
lfemur -15.9171 -4.89898 -28.146
ltibia 33.2756
lfoot -27.1206 6.5283
ltoes -8.12996
2876
root 9.0017 17.292 9.14071 -167.038 -9.39578 -185.766
lowerback 3.55188 -0.459939 -9.30506
upperback -2.25402 -1.27275 -1.11169
thorax -4.19532 -0.426076 4.14819
lowerneck -6.84354 3.02932 2.6451
upperneck 5.5484 3.84622 -0.879454
head 3.05423 1.93243 -0.562137
rclavicle -1.54058e-015 8.94531e-015
rhumerus -51.2337 12.1305 -86.9938
rradius 46.9357
rwrist -12.1105
rhand -17.6648 -41.9429
rfingers 7.12502
rthumb 8.59383 288.252
lclavicle -1.54058e-015 8.94531e-015
lhumerus -37.3275 -17.5457 74.7983
lradius 62.3293
lwrist 29.1408
lhand -20.9221 -28.2638
lfingers 7.12502
lthumb 5.44952 1.64613
rfemur -45.0746 -3.68676 18.8977
rtibia 58.1258
rfoot -14.8261 -8.09463
rtoes -4.06138
lfemur -14.9485 -4.54068 -28.5738
ltibia 32.5826
lfoot -27.4559 6.87701
ltoes -9.52638
2877
root 8.95959 17.2931 9.00009 -166.969 -9.18965 -185.922
lowerback 3.37654 -0.450869 -9.52189
upperback -2.11295 -1.24967 -1.18647
thorax -3.94951 -0.427086 4.18501
lowerneck -6.87304 3.03507 2.98108
upperneck 5.45067 3.84664 -1.2353
head 3.04497 1.92695 -0.736499
rclavicle -2.08724e-015 4.59193e-014
rhumerus -51.0782 11.3725 -86.4761
rradius 46.2381
rwrist -11.5261
rhand -16.6353 -39.4007
rfingers 7.12502
rthumb 9.58725 290.837
lclavicle -2.08724e-015 4.59193e-014
lhumerus -36.3833 -18.2486 74.8728
lradius 62.4466
lwrist 29.3185
lhand -21.1218 -28.4932
lfingers 7.12502
lthumb 5.2567 1.42157
rfemur -45.6795 -3.60327 18.6725
rtibia 56.5994
rfoot -14.8487 -8.30923
rtoes -5.68673
lfemur -14.0461 -4.27535 -28.8662
ltibia 31.884
lfoot -27.7184 6.73451
ltoes -8.07805
2878
root 8.91911 17.2801 8.8623 -166.903 -9.07581 -185.967
lowerback 3.68503 -0.472298 -9.33409
upperback -2.25232 -1.33513 -1.40206
thorax -4.26819 -0.46485 3.8674
lowerneck -6.98935 3.03571 3.2657
upperneck 5.6594 3.8097 -1.17828
head 3.14421 1.91668 -0.767074
rclavicle -1.25483e-014 -2.68359e-014
rhumerus -51.3493 10.7245 -86.4655
rradius 45.9989
rwrist -11.3499
rhand -17.7327 -37.6889
rfingers 7.12502
rthumb 8.5283 292.503
lclavicle -1.25483e-014 -2.68359e-014
lhumerus -35.8421 -19.0056 74.7583
lradius 62.6062
lwrist 29.6485
lhand -20.8438 -28.4185
lfingers 7.12502
lthumb 5.5252 1.48949
rfemur -46.2962 -3.40128 18.502
rtibia 55.1445
rfoot -14.8518 -8.60795
rtoes -3.87712
lfemur -13.1385 -4.32162 -29.0286
ltibia 31.1652
lfoot -27.9562 6.53159
ltoes -4.53657
2879
root 8.87624 17.2312 8.7279 -166.928 -9.04184 -186.165
lowerback 3.93922 -0.604885 -9.39365
upperback -2.29545 -1.55868 -1.48743
thorax -4.43022 -0.569587 3.83224
lowerneck -6.69091 3.13676 3.11567
upperneck 5.47067 3.94828 -0.906402
head 3.0141 1.99172 -0.65043
rclavicle -4.47266e-015 9.93923e-016
rhumerus -51.5791 10.5736 -86.4009
rradius 45.9345
rwrist -11.3807
rhand -20.1757 -35.9135
rfingers 7.12502
rthumb 6.17018 294.196
lclavicle -4.47266e-015 9.93923e-016
lhumerus -35.4789 -19.2766 74.8043
lradius 62.9008
lwrist 29.7272
lhand -20.7041 -28.2524
lfingers 7.12502
lthumb 5.66002 1.65203
rfemur -46.6479 -3.19068 18.1134
rtibia 53.7531
rfoot -15.3868 -8.77601
rtoes -1.10806
lfemur -12.0642 -4.50322 -29.3751
ltibia 30.3473
lfoot -28.1678 6.67822
ltoes -2.53471
2880
root 8.83624 17.1946 8.59395 -166.995 -8.98331 -186.242
lowerback 3.90314 -0.787343 -9.96803
upperback -2.0831 -1.77844 -1.08372
thorax -4.13024 -0.667249 4.58615
lowerneck -6.63481 3.32351 2.62442
upperneck 5.20703 4.25695 -1.00486
head 2.90889 2.13172 -0.584477
rclavicle -3.36692e-014 -3.12092e-014
rhumerus -51.3606 11.0611 -85.8248
rradius 45.7921
rwrist -11.5139
rhand -25.0295 -32.2673
rfingers 7.12502
rthumb 1.48305 297.758
lclavicle -3.36692e-014 -3.12092e-014
lhumerus -34.7275 -18.891 75.307
lradius 63.0276
lwrist 29.6902
lhand -20.8553 -28.3265
lfingers 7.12502
lthumb 5.51403 1.58179
rfemur -46.9169 -3.05774 17.8877
rtibia 52.3504
rfoot -15.6666 -9.05365
rtoes 1.22776
lfemur -10.9991 -4.44512 -29.58
ltibia 29.5943
lfoot -28.3214 6.76194
ltoes -5.14046
